<svg width="34" height="44" viewBox="0 0 34 44" fill="none" xmlns="http://www.w3.org/2000/svg">
<rect x="6" y="19" width="8" height="19" fill="#F9461D"/>
<rect x="14" y="23" width="8" height="12" fill="#F9461D"/>
<rect x="9" width="14" height="3" fill="#F15347"/>
<rect x="6" y="2" width="25" height="3" fill="#F15347"/>
<rect x="9" y="5" width="16" height="14" fill="#FFC181"/>
<rect x="6" y="8" width="3" height="5" fill="#FFC181"/>
<rect x="25" y="8" width="5" height="7" fill="#FFC181"/>
<rect x="30" y="11" width="3" height="3" fill="#FFC181"/>
<rect x="6" y="5" width="8" height="3" fill="#A98727"/>
<rect x="9" y="8" width="3" height="3" fill="#A98727"/>
<rect x="3" y="13" width="6" height="3" fill="#A98727"/>
<rect x="6" y="19" width="6" height="3" fill="#A98727"/>
<rect x="4" y="22" width="8" height="3" fill="#A98727"/>
<rect x="1" y="24" width="11" height="3" fill="#A98727"/>
<rect x="22" y="22" width="8" height="3" fill="#A98727"/>
<rect x="22" y="38" width="8" height="4" fill="#A98727"/>
<rect width="8" height="4" transform="matrix(-1 0 0 1 12 38)" fill="#A98727"/>
<rect x="15" y="19" width="8" height="3" fill="#A98727"/>
<rect x="14" y="19" width="6" height="6" fill="#A98727"/>
<rect y="27" width="6" height="8" fill="#FBBE7F"/>
<rect x="28" y="27" width="6" height="8" fill="#FBBE7F"/>
<rect x="20" y="19" width="8" height="19" fill="#F9461D"/>
<rect x="6" y="30" width="3" height="3" fill="#FBBE7F"/>
<rect x="25" y="30" width="3" height="3" fill="#FBBE7F"/>
<rect x="19" y="27" width="3" height="3" fill="#FBBE7F"/>
<rect x="12" y="27" width="3" height="3" fill="#FBBE7F"/>
<rect x="22" y="24" width="11" height="3" fill="#A98727"/>
<rect x="22" y="41" width="11" height="3" fill="#A98727"/>
<rect width="11" height="3" transform="matrix(-1 0 0 1 12 41)" fill="#A98727"/>
<rect x="20" y="5" width="3" height="6" fill="#A98727"/>
<rect x="3" y="8" width="3" height="6" fill="#A98727"/>
<rect x="23" y="11" width="3" height="5" fill="#A98727"/>
<rect x="20" y="14" width="11" height="2" fill="#A98727"/>
<rect x="9" y="11" width="6" height="3" fill="#A98727"/>
</svg>
