<svg width="129" height="43" viewBox="0 0 129 43" fill="none" xmlns="http://www.w3.org/2000/svg">
<path d="M4 2L2 4V41.5H41.5L42 5L41 4L39 2H4Z" fill="#FFC07B"/>
<rect x="29" y="13" width="3" height="11" fill="#000403"/>
<rect x="24" y="21" width="6" height="3" fill="#000403"/>
<rect x="22" y="23" width="5" height="7" fill="#000403"/>
<rect x="21" y="32" width="6" height="6" fill="#000403"/>
<rect x="35" y="35" width="3" height="3" fill="#000403"/>
<rect x="5" y="35" width="3" height="3" fill="#000403"/>
<rect x="5" y="5" width="3" height="3" fill="#000403"/>
<rect x="35" y="5" width="3" height="3" fill="#000403"/>
<rect y="3" width="3" height="37" fill="#DC5817"/>
<rect x="14" y="11" width="5" height="10" fill="#000403"/>
<rect x="19" y="11" width="5" height="2" fill="#000403"/>
<rect x="11" y="11" width="5" height="7" fill="#DC5817"/>
<rect x="13" y="8" width="14" height="3" fill="#DC5817"/>
<rect x="22" y="19" width="5" height="3" fill="#DC5817"/>
<rect x="19" y="21" width="5" height="6" fill="#DC5817"/>
<rect x="19" y="29" width="5" height="6" fill="#DC5817"/>
<rect x="24" y="11" width="5" height="10" fill="#DC5817"/>
<rect y="43" width="3" height="43" transform="rotate(-90 0 43)" fill="#000303"/>
<rect x="3" y="3" width="3" height="37" transform="rotate(-90 3 3)" fill="#DC5817"/>
<rect x="40" y="3" width="3" height="37" fill="#000303"/>
<path d="M90 2L88 4V41.5H127.5L128 5L127 4L125 2H90Z" fill="#FFC07B"/>
<rect x="115" y="13" width="3" height="11" fill="#000403"/>
<rect x="110" y="21" width="6" height="3" fill="#000403"/>
<rect x="108" y="23" width="5" height="7" fill="#000403"/>
<rect x="107" y="32" width="6" height="6" fill="#000403"/>
<rect x="121" y="35" width="3" height="3" fill="#000403"/>
<rect x="91" y="35" width="3" height="3" fill="#000403"/>
<rect x="91" y="5" width="3" height="3" fill="#000403"/>
<rect x="121" y="5" width="3" height="3" fill="#000403"/>
<rect x="86" y="3" width="3" height="37" fill="#DC5817"/>
<rect x="100" y="11" width="5" height="10" fill="#000403"/>
<rect x="105" y="11" width="5" height="2" fill="#000403"/>
<rect x="97" y="11" width="5" height="7" fill="#DC5817"/>
<rect x="99" y="8" width="14" height="3" fill="#DC5817"/>
<rect x="108" y="19" width="5" height="3" fill="#DC5817"/>
<rect x="105" y="21" width="5" height="6" fill="#DC5817"/>
<rect x="105" y="29" width="5" height="6" fill="#DC5817"/>
<rect x="110" y="11" width="5" height="10" fill="#DC5817"/>
<rect x="86" y="43" width="3" height="43" transform="rotate(-90 86 43)" fill="#000303"/>
<rect x="89" y="3" width="3" height="37" transform="rotate(-90 89 3)" fill="#DC5817"/>
<rect x="126" y="3" width="3" height="37" fill="#000303"/>
</svg>
